{"title":"Jalsaghar aka The Music Room (Satyajit Ray, 1958)","uid":7051447,"size":1673049585,"categoryP":"video","categoryS":"movies","magnet":"?xt=urn:btih:aa6322372ed3b7be7509c6e136aba635de348a8b&amp;dn=Jalsaghar+aka+The+Music+Room+%28Satyajit+Ray%2C+1958%29&amp;tr=udp%3A%2F%2Ftracker.openbittorrent.com%3A80&amp;tr=udp%3A%2F%2Fopen.demonii.com%3A1337&amp;tr=udp%3A%2F%2Ftracker.coppersurfer.tk%3A6969&amp;tr=udp%3A%2F%2Fexodus.desync.com%3A6969","seeders":6,"leechers":1,"uploader":"rpessoa","files":4,"time":1329973716,"description":"Jalsaghar aka The Music Room (Satyajit Ray, 1958)\n  &lt;a href=&quot;\nhttp://www.imdb.com/title/tt0051792&quot; rel=&quot;nofollow&quot; target=&quot;_NEW&quot;&gt;\nhttp://www.imdb.com/title/tt0051792&lt;/a&gt;\n\nBiswambhar Roy is a zamindar (landlord) and the last of his kind. With the title, he has none of the perquisites, inheriting diminishing lands that are being eroded by the neighbouring river. But he must maintain the lifestyle of his heritage. This ostentation is most apparent in the grandest room of his mansion, the music room. Here he inports the finest musicians and dancers to perform, and invites the area's most important commoners. His wife's entreaties to control spending are ignored, and the puberty party he throws for his son bring him down to the last few sacks of family jewels. Then, struck by tragedy, he locks the music room and slips into lethargy - until a final grand soiree consumes the last of his funds.\n\nGeneral\nComplete name                            : The.Music.Room.1958.BluRay.Criterion.Collection.480p.AC3.XviD.avi\nFormat                                   : AVI\nFormat/Info                              : Audio Video Interleave\nFile size                                : 1.56 GiB\nDuration                                 : 1h 38mn\nOverall bit rate                         : 2 255 Kbps\nWriting application                      : VirtualDubMod 1.5.10.2 (build 2540/release)\nWriting library                          : VirtualDubMod build 2540/release\n\nVideo\nID                                       : 0\nFormat                                   : MPEG-4 Visual\nFormat profile                           : Advanced Simple@L5\nFormat settings, BVOP                    : 2\nFormat settings, QPel                    : No\nFormat settings, GMC                     : No warppoints\nFormat settings, Matrix                  : Default (H.263)\nCodec ID                                 : XVID\nCodec ID/Hint                            : XviD\nDuration                                 : 1h 38mn\nBit rate                                 : 1 861 Kbps\nWidth                                    : 640 pixels\nHeight                                   : 480 pixels\nDisplay aspect ratio                     : 4:3\nFrame rate                               : 23.976 fps\nColor space                              : YUV\nChroma subsampling                       : 4:2:0\nBit depth                                : 8 bits\nScan type                                : Progressive\nCompression mode                         : Lossy\nBits/(Pixel*Frame)                       : 0.253\nStream size                              : 1.29 GiB (83%)\nWriting library                          : XviD 64\n\nAudio\nID                                       : 1\nFormat                                   : AC-3\nFormat/Info                              : Audio Coding 3\nMode extension                           : CM (complete main)\nCodec ID                                 : 2000\nDuration                                 : 1h 38mn\nBit rate mode                            : Constant\nBit rate                                 : 384 Kbps\nChannel(s)                               : 1 channel\nChannel positions                        : Front: C\nSampling rate                            : 48.0 KHz\nBit depth                                : 16 bits\nCompression mode                         : Lossy\nStream size                              : 272 MiB (17%)\nAlignment                                : Split accross interleaves\nInterleave, duration                     : 42 ms (1.00 video frame)\nInterleave, preload duration             : 500 ms\n\n\nReencoded from The.Music.Room.1958.BluRay.Criterion.Collection.720p.AC3.x264-CHD","torrent":{"xt":"urn:btih:aa6322372ed3b7be7509c6e136aba635de348a8b","amp;dn":"Jalsaghar+aka+The+Music+Room+%28Satyajit+Ray%2C+1958%29","amp;tr":["udp%3A%2F%2Ftracker.openbittorrent.com%3A80","udp%3A%2F%2Fopen.demonii.com%3A1337","udp%3A%2F%2Ftracker.coppersurfer.tk%3A6969","udp%3A%2F%2Fexodus.desync.com%3A6969"],"infoHash":"aa6322372ed3b7be7509c6e136aba635de348a8b","infoHashBuffer":{"type":"Buffer","data":[170,99,34,55,46,211,183,190,117,9,198,225,54,171,166,53,222,52,138,139]},"announce":[],"urlList":[]}}